<?xml version="1.0" encoding="UTF-8" standalone="no"?>
<!-- Created with Inkscape (http://www.inkscape.org/) -->

<svg
   width="264.58334mm"
   height="264.58334mm"
   viewBox="0 0 264.58334 264.58334"
   version="1.1"
   id="svg5"
   xmlns="http://www.w3.org/2000/svg"
   xmlns:svg="http://www.w3.org/2000/svg">
  <defs
     id="defs2">
    <rect
       x="83.752754"
       y="430.86679"
       width="152.4978"
       height="68.745041"
       id="rect2176" />
    <rect
       x="83.752754"
       y="430.86679"
       width="152.4978"
       height="68.745041"
       id="rect8660" />
    <rect
       x="83.752754"
       y="430.86679"
       width="152.4978"
       height="68.745041"
       id="rect10678" />
    <rect
       x="83.752754"
       y="430.86679"
       width="152.4978"
       height="68.745041"
       id="rect10688" />
    <rect
       x="83.752754"
       y="430.86679"
       width="152.4978"
       height="68.745041"
       id="rect13180" />
    <rect
       x="83.752754"
       y="430.86679"
       width="152.4978"
       height="68.745041"
       id="rect13196" />
    <rect
       x="83.752754"
       y="430.86679"
       width="152.4978"
       height="68.745041"
       id="rect14485" />
  </defs>
  <g
     id="layer1"
     transform="translate(-13.657754,-106.22813)">
    <path
       id="path8552"
       style="fill:#000000;fill-opacity:1;stroke-width:15.1863;stroke-opacity:0.54"
       d="m 145.94943,132.68647 c -26.74735,0 -53.495577,1.46638 -58.567584,4.39473 -10.144056,5.85665 -58.567584,89.72637 -58.567584,101.43971 0,11.71334 48.423528,95.58306 58.567584,101.43971 10.144054,5.85669 106.991114,5.85669 117.135164,0 10.14406,-5.85665 58.56758,-89.72637 58.56758,-101.43971 0,-11.71334 -48.42352,-95.58306 -58.56758,-101.43971 -5.07201,-2.92835 -31.82024,-4.39473 -58.56758,-4.39473 z m -44.43382,50.14698 h 88.87551 v 17.51611 h -34.23178 v 93.85884 h -20.41195 v -93.85884 h -34.23178 z" />
  </g>
</svg>
