<?xml version="1.0" encoding="UTF-8" standalone="no"?>
<!-- Created with Inkscape (http://www.inkscape.org/) -->

<svg
   width="863.75745mm"
   height="211.66666mm"
   viewBox="0 0 863.75746 211.66666"
   version="1.1"
   id="svg5"
   xmlns="http://www.w3.org/2000/svg"
   xmlns:svg="http://www.w3.org/2000/svg">
  <defs
     id="defs2">
    <rect
       x="83.752754"
       y="430.86679"
       width="152.4978"
       height="68.745041"
       id="rect2176" />
    <rect
       x="83.752754"
       y="430.86679"
       width="152.4978"
       height="68.745041"
       id="rect8660" />
    <rect
       x="83.752754"
       y="430.86679"
       width="152.4978"
       height="68.745041"
       id="rect10678" />
    <rect
       x="83.752754"
       y="430.86679"
       width="152.4978"
       height="68.745041"
       id="rect10688" />
    <rect
       x="83.752754"
       y="430.86679"
       width="152.4978"
       height="68.745041"
       id="rect13180" />
    <rect
       x="83.752754"
       y="430.86679"
       width="152.4978"
       height="68.745041"
       id="rect13196" />
    <rect
       x="83.752754"
       y="430.86679"
       width="152.4978"
       height="68.745041"
       id="rect14485" />
  </defs>
  <g
     id="layer1"
     transform="translate(-64.993074,-95.311848)">
    <g
       id="g15380"
       transform="translate(42.696128,-20.344622)">
      <g
         id="g14612"
         transform="matrix(25.348451,0,0,25.348451,-542.8963,-2816.0564)">
        <path
           d="m 28.149536,116.5349 v 1.15359 h -2.254249 v 6.18066 h -1.344083 v -6.18066 h -2.25425 v -1.15359 z"
           style="font-weight:500;font-size:40px;line-height:1.25;-inkscape-font-specification:'Ubuntu Medium';white-space:pre;stroke-width:0.264583"
           id="path14567" />
        <path
           d="m 28.207083,121.12807 q 0,-0.73025 0.211667,-1.28058 0.22225,-0.55034 0.582083,-0.91017 0.359834,-0.37042 0.8255,-0.55033 0.465667,-0.1905 0.9525,-0.1905 1.143,0 1.778,0.70908 0.645584,0.70908 0.645584,2.11667 0,0.10583 -0.01058,0.24341 0,0.127 -0.01058,0.23284 H 29.53 q 0.05292,0.66675 0.465667,1.03716 0.423333,0.35984 1.217083,0.35984 0.465667,0 0.846667,-0.0847 0.391583,-0.0847 0.613833,-0.17992 l 0.169333,1.04775 q -0.105833,0.0529 -0.296333,0.11642 -0.179917,0.0529 -0.423333,0.0953 -0.232834,0.0529 -0.508,0.0847 -0.275167,0.0317 -0.560917,0.0317 -0.73025,0 -1.27,-0.21167 -0.53975,-0.22225 -0.889,-0.60325 -0.34925,-0.39158 -0.518583,-0.91017 -0.169334,-0.52916 -0.169334,-1.15358 z m 3.71475,-0.5715 q 0,-0.26458 -0.07408,-0.49742 -0.07408,-0.24341 -0.22225,-0.41275 -0.137583,-0.17991 -0.34925,-0.27516 -0.201083,-0.10584 -0.486833,-0.10584 -0.296334,0 -0.518584,0.11642 -0.22225,0.10583 -0.381,0.28575 -0.148166,0.17992 -0.232833,0.41275 -0.08467,0.23283 -0.116417,0.47625 z"
           style="font-weight:500;font-size:40px;line-height:1.25;-inkscape-font-specification:'Ubuntu Medium';white-space:pre;stroke-width:0.264583"
           id="path14569" />
        <path
           d="m 34.242891,121.1069 q 0,-0.61383 0.1905,-1.143 0.1905,-0.53975 0.539749,-0.93133 0.359834,-0.39158 0.867834,-0.61383 0.508,-0.22225 1.143,-0.22225 0.783166,0 1.481666,0.28575 l -0.275166,1.04775 q -0.22225,-0.0952 -0.508,-0.15875 -0.275167,-0.0635 -0.592667,-0.0635 -0.751417,0 -1.143,0.47625 -0.391583,0.46566 -0.391583,1.32291 0,0.8255 0.370416,1.31234 0.370417,0.47625 1.248834,0.47625 0.328083,0 0.645583,-0.0635 0.3175,-0.0635 0.550333,-0.15875 l 0.179917,1.05833 q -0.211667,0.10583 -0.645583,0.1905 -0.423334,0.0847 -0.878417,0.0847 -0.709083,0 -1.23825,-0.21167 -0.518583,-0.22225 -0.867833,-0.60325 -0.338667,-0.39158 -0.508,-0.92075 -0.169333,-0.53975 -0.169333,-1.16417 z"
           style="font-weight:500;font-size:40px;line-height:1.25;-inkscape-font-specification:'Ubuntu Medium';white-space:pre;stroke-width:0.264583"
           id="path14571" />
        <path
           d="m 39.552086,123.86915 v -8.001 l 1.280583,-0.21166 v 2.74108 q 0.211667,-0.0741 0.486833,-0.127 0.28575,-0.0529 0.560917,-0.0529 0.66675,0 1.100667,0.1905 0.4445,0.17992 0.709083,0.51859 0.264583,0.32808 0.370417,0.79375 0.116416,0.46566 0.116416,1.03716 v 3.1115 h -1.280583 v -2.91041 q 0,-0.4445 -0.0635,-0.75142 -0.05292,-0.3175 -0.1905,-0.508 -0.127,-0.20108 -0.34925,-0.28575 -0.22225,-0.0953 -0.550333,-0.0953 -0.254,0 -0.518584,0.0529 -0.264583,0.0529 -0.391583,0.0952 v 4.40266 z"
           style="font-weight:500;font-size:40px;line-height:1.25;-inkscape-font-specification:'Ubuntu Medium';white-space:pre;stroke-width:0.264583"
           id="path14573" />
      </g>
      <g
         id="g14606"
         transform="matrix(25.348451,0,0,25.348451,-542.8963,-2816.0564)">
        <path
           d="m 47.818,115.65649 q 0.4445,0 0.719666,0.0741 0.28575,0.0635 0.370417,0.11642 l -0.137583,0.59266 q -0.116417,-0.0529 -0.34925,-0.10583 -0.22225,-0.0635 -0.5715,-0.0635 -0.73025,0 -1.04775,0.37042 -0.306917,0.37041 -0.306917,1.18533 v 0.5715 h 2.201333 v 0.58208 h -2.201333 v 4.8895 h -0.687917 v -6.06425 q 0,-1.06891 0.486834,-1.60866 0.497416,-0.53975 1.524,-0.53975 z m 2.656416,8.21266 H 49.7865 v -5.47158 h 0.687916 z m 0.15875,-7.12258 q 0,0.24342 -0.148166,0.39158 -0.148167,0.13759 -0.359834,0.13759 -0.211666,0 -0.359833,-0.13759 -0.148167,-0.14816 -0.148167,-0.39158 0,-0.24342 0.148167,-0.381 0.148167,-0.14817 0.359833,-0.14817 0.211667,0 0.359834,0.14817 0.148166,0.13758 0.148166,0.381 z"
           style="font-weight:300;font-size:40px;line-height:1.25;-inkscape-font-specification:'Ubuntu Light';white-space:pre;stroke-width:0.264583"
           id="path14575" />
        <path
           d="m 54.012226,121.39265 q -0.232833,0.30692 -0.465666,0.64559 -0.232834,0.33866 -0.455084,0.66675 -0.211666,0.32808 -0.391583,0.635 -0.179917,0.29633 -0.306917,0.52916 h -0.709083 q 0.433917,-0.81491 0.910167,-1.51341 0.47625,-0.70909 0.973666,-1.38642 l -1.778,-2.57175 h 0.804334 l 1.418166,2.0955 1.439334,-2.0955 h 0.751416 l -1.74625,2.52942 q 0.22225,0.29633 0.47625,0.64558 0.254,0.34925 0.508,0.73025 0.254,0.37042 0.486834,0.77258 0.243416,0.40217 0.444499,0.79375 h -0.740833 q -0.127,-0.23283 -0.306916,-0.52916 -0.179917,-0.30692 -0.402167,-0.635 -0.211667,-0.32809 -0.455083,-0.66675 -0.232834,-0.33867 -0.455084,-0.64559 z"
           style="font-weight:300;font-size:40px;line-height:1.25;-inkscape-font-specification:'Ubuntu Light';white-space:pre;stroke-width:0.264583"
           id="path14577" />
      </g>
    </g>
  </g>
</svg>
